<svg width="1080" height="1080" viewBox="0 0 1080 1080" fill="none" xmlns="http://www.w3.org/2000/svg">
<rect width="1080" height="1080" rx="240" fill="#181818"/>
<path d="M696.321 458.072C693.514 456.727 690.662 455.432 687.774 454.192C682.743 361.498 632.093 308.431 547.047 307.888C546.662 307.885 546.278 307.885 545.893 307.885C495.024 307.885 452.717 329.599 426.678 369.11L473.451 401.196C492.903 371.682 523.432 365.39 545.915 365.39C546.175 365.39 546.436 365.39 546.693 365.393C574.696 365.571 595.826 373.713 609.503 389.59C619.456 401.15 626.112 417.123 629.408 437.283C604.581 433.063 577.73 431.766 549.026 433.411C468.168 438.069 416.185 485.227 419.677 550.755C421.448 583.994 438.007 612.59 466.302 631.27C490.224 647.061 521.035 654.784 553.056 653.035C595.344 650.717 628.519 634.583 651.663 605.081C669.24 582.677 680.357 553.644 685.265 517.061C705.418 529.224 720.354 545.229 728.603 564.469C742.629 597.175 743.447 650.921 699.593 694.737C661.171 733.122 614.985 749.728 545.185 750.241C467.759 749.667 409.202 724.836 371.13 676.437C335.479 631.117 317.054 565.657 316.367 481.874C317.054 398.09 335.479 332.629 371.13 287.309C409.202 238.911 467.758 214.08 545.184 213.505C623.173 214.085 682.75 239.035 722.279 287.667C741.662 311.515 756.275 341.506 765.909 376.475L820.72 361.851C809.043 318.809 790.668 281.718 765.664 250.958C714.988 188.61 640.872 156.662 545.375 156H544.993C449.691 156.66 376.405 188.729 327.172 251.316C283.361 307.01 260.762 384.504 260.002 481.645L260 481.874L260.002 482.103C260.762 579.242 283.361 656.739 327.172 712.433C376.405 775.017 449.691 807.089 544.993 807.747H545.375C630.104 807.16 689.827 784.977 739.027 735.821C803.398 671.512 801.459 590.902 780.244 541.417C765.023 505.931 736.003 477.108 696.321 458.072ZM550.029 595.614C514.59 597.61 477.773 581.703 475.958 547.632C474.612 522.37 493.936 494.182 552.204 490.824C558.877 490.439 565.425 490.251 571.858 490.251C593.023 490.251 612.823 492.307 630.824 496.243C624.11 580.094 584.726 593.709 550.029 595.614Z" fill="#D9D9D9"/>
<path d="M728 925C728 925 870 854 870 747.5V623.25L728 570L586 623.25V747.5C586 854 728 925 728 925Z" fill="white" stroke="#181818" stroke-width="30" stroke-linecap="round" stroke-linejoin="round"/>
<path d="M674.75 747.5L710.25 783L781.25 712" fill="white"/>
<path d="M674.75 747.5L710.25 783L781.25 712" stroke="#181818" stroke-width="30" stroke-linecap="round" stroke-linejoin="round"/>
</svg>
